<?xml version="1.0" encoding="UTF-8" standalone="no"?><!DOCTYPE svg PUBLIC "-//W3C//DTD SVG 1.1//EN" "http://www.w3.org/Graphics/SVG/1.1/DTD/svg11.dtd"><svg width="100%" height="100%" viewBox="0 0 6400 6400" version="1.1" xmlns="http://www.w3.org/2000/svg" xmlns:xlink="http://www.w3.org/1999/xlink" xml:space="preserve" xmlns:serif="http://www.serif.com/" style="fill-rule:evenodd;clip-rule:evenodd;stroke-linejoin:round;stroke-miterlimit:2;"><rect id="textlogo_white_smallsquare_blackbg" x="0" y="0" width="6400" height="6400" style="fill:none;"/><clipPath id="_clip1"><rect x="0" y="0" width="6400" height="6400"/></clipPath><g clip-path="url(#_clip1)"><rect x="0" y="0" width="6400" height="6400"/><g id="Logo"><g><path d="M5787.5,3349.38l0,276.837l-434.913,0l0,-276.837l434.913,0Z" style="fill:#fff;"/><rect x="3061.73" y="2234.94" width="276.532" height="1391.27" style="fill:#fff;"/><path d="M4043.91,3349.38l276.89,0l1019.41,-1767.62l447.291,0l0,276.837l-287.636,0l-1019.41,1767.62l-436.546,0l0,-276.837Z" style="fill:#fff;"/><path d="M4043.91,1858.6l0,-276.837l434.912,0l0,276.837l-434.912,0Z" style="fill:#fff;"/><path d="M2356.09,1858.6l0,-276.837l-434.912,0l0,276.837l434.912,0Z" style="fill:#fff;"/><path d="M2356.09,3626.22l-447.291,0l-1019.41,-1767.62l-276.891,0l0,-276.837l436.546,0l1019.41,1767.62l287.635,0l0,276.837Z" style="fill:#fff;"/><path d="M612.5,3349.38l0,276.837l434.913,0l0,-276.837l-434.913,0Z" style="fill:#fff;"/><path d="M3338.27,1858.6l0,-276.837l-276.532,0l0,276.837l276.532,0Z" style="fill:#fff;"/></g><g><path d="M797.954,4670.48c22.476,0 47.2,-6.738 67.429,-13.476l-11.987,-46.438c-11.988,4.502 -28.471,9.754 -41.207,9.754c-41.957,0 -56.192,-25.51 -56.192,-70.529l0,-202.581l98.148,0l0,-50.16l-98.148,0l0,-102.006l-51.618,0l-7.481,102.006l-56.936,3.743l0,46.417l53.944,0l0,201.831c0,72.028 26.183,121.439 104.048,121.439Z" style="fill:#fff;fill-rule:nonzero;"/><path d="M936.653,4661.48l61.342,0l0,-264.016c36.732,-36.752 62.22,-56.254 99.701,-56.254c47.977,0 68.967,29.252 68.967,97.506l0,222.764l61.343,0l0,-231.014c0,-92.999 -34.412,-142.415 -110.819,-142.415c-50.226,0 -86.958,26.954 -121.436,59.91l2.244,-74.911l0,-145.509l-61.342,0l0,533.939Z" style="fill:#fff;fill-rule:nonzero;"/><path d="M1491.79,4670.48c49.473,0 88.432,-17.219 119.844,-37.432l-21.689,-40.5c-26.944,17.264 -56.178,28.523 -90.659,28.523c-69.711,0 -116.935,-49.54 -121.433,-126.852l245.748,0c1.496,-8.982 2.244,-22.454 2.244,-35.178c0,-104.316 -52.355,-170.991 -145.298,-170.991c-83.205,0 -163.287,72.681 -163.287,191.948c0,119.305 77.084,190.482 174.53,190.482Zm-114.686,-220.42c7.496,-72.064 53.97,-113.351 104.942,-113.351c56.968,0 89.949,39.786 89.949,113.351l-194.891,0Z" style="fill:#fff;fill-rule:nonzero;"/><path d="M1865.69,4661.48l61.342,0l0,-264.016c36.732,-36.752 62.22,-56.254 99.701,-56.254c47.977,0 68.967,29.252 68.967,97.506l0,222.764l61.343,0l0,-231.014c0,-92.999 -34.412,-142.415 -110.819,-142.415c-50.226,0 -87.707,26.954 -122.184,61.41l-2.244,0l-5.237,-52.41l-50.869,0l0,364.429Z" style="fill:#fff;fill-rule:nonzero;"/><path d="M2275.51,4661.48l61.343,0l0,-364.429l-61.343,0l0,364.429Zm31.421,-439.527c23.948,0 42.658,-16.482 42.658,-39.706c0,-23.973 -18.71,-39.705 -42.658,-39.705c-23.949,0 -42.659,15.732 -42.659,39.705c0,23.224 18.71,39.706 42.659,39.706Z" style="fill:#fff;fill-rule:nonzero;"/><path d="M2408.87,4661.48l64.414,0l49.433,-84.733c11.984,-22.496 23.968,-44.241 36.701,-65.237l2.996,0c13.481,20.996 26.963,43.491 39.696,65.237l53.179,84.733l66.662,0l-118.343,-183.713l110.102,-180.716l-64.413,0l-44.191,80.235c-11.235,19.497 -22.47,40.492 -32.955,60.738l-2.996,0c-12.733,-20.246 -24.717,-41.241 -35.952,-60.738l-48.684,-80.235l-66.661,0l110.102,173.967l-119.09,190.462Z" style="fill:#fff;fill-rule:nonzero;"/><path d="M3087.57,4670.48c43.455,0 84.662,-17.22 117.628,-46.418l-26.972,-41.256c-22.477,20.258 -51.696,36.764 -85.411,36.764c-66.681,0 -112.383,-56.272 -112.383,-139.555c0,-84.033 47.95,-141.056 113.881,-141.056c29.22,0 51.696,13.505 72.674,32.263l31.468,-40.498c-25.474,-23.209 -58.439,-42.674 -106.39,-42.674c-93.652,0 -175.223,69.666 -175.223,191.965c0,120.798 74.079,190.465 170.728,190.465Z" style="fill:#fff;fill-rule:nonzero;"/><path d="M3411.28,4670.48c89.196,0 168.528,-69.667 168.528,-190.465c0,-122.299 -79.332,-191.965 -168.528,-191.965c-89.197,0 -168.528,69.666 -168.528,191.965c0,120.798 79.331,190.465 168.528,190.465Zm0,-50.91c-62.213,0 -104.938,-56.272 -104.938,-139.555c0,-84.033 42.725,-141.056 104.938,-141.056c62.962,0 104.938,57.023 104.938,141.056c0,83.283 -41.976,139.555 -104.938,139.555Z" style="fill:#fff;fill-rule:nonzero;"/><path d="M3675.8,4661.48l61.342,0l0,-264.016c33.734,-37.502 64.47,-56.254 91.458,-56.254c46.478,0 68.22,29.252 68.22,97.506l0,222.764l61.342,0l0,-264.016c33.735,-37.502 62.972,-56.254 91.459,-56.254c45.73,0 67.469,29.252 67.469,97.506l0,222.764l61.343,0l0,-231.014c0,-92.999 -35.908,-142.415 -110.82,-142.415c-44.23,0 -81.713,28.451 -119.924,69.66c-14.962,-43.455 -44.885,-69.66 -100.348,-69.66c-43.48,0 -81.712,26.954 -113.191,61.41l-2.245,0l-5.236,-52.41l-50.869,0l0,364.429Z" style="fill:#fff;fill-rule:nonzero;"/><path d="M4296.9,4815.24l61.342,0l0,-123.008l-1.496,-63.677c33.729,26.203 67.46,41.926 101.191,41.926c83.204,0 157.288,-72.668 157.288,-196.467c0,-113.295 -50.124,-185.963 -143.795,-185.963c-42.726,0 -83.204,23.209 -116.18,50.911l-2.244,0l-5.237,-41.911l-50.869,0l0,518.189Zm150.543,-196.419c-23.987,0 -56.219,-10.5 -89.201,-38.252l0,-191.339c35.981,-32.263 66.714,-49.52 97.447,-49.52c68.962,0 95.946,54.022 95.946,134.304c0,90.054 -44.225,144.807 -104.192,144.807Z" style="fill:#fff;fill-rule:nonzero;"/><path d="M4786.08,4670.48c45.729,0 86.21,-23.956 120.686,-52.411l2.244,0l5.236,43.41l50.871,0l0,-223.514c0,-90.755 -37.405,-149.915 -126.561,-149.915c-58.473,0 -109.427,25.454 -143.089,47.166l23.937,42.746c28.444,-19.502 66.676,-39.003 108.657,-39.003c59.972,0 74.964,45.003 74.964,91.506c-155.177,17.251 -223.267,57.003 -223.267,136.508c0,65.327 45.631,103.507 106.322,103.507Zm17.992,-49.409c-35.984,0 -64.471,-17.257 -64.471,-58.524c0,-46.518 41.981,-76.53 163.424,-91.536l0,101.29c-35.233,31.513 -63.719,48.77 -98.953,48.77Z" style="fill:#fff;fill-rule:nonzero;"/><path d="M5079.84,4661.48l61.342,0l0,-264.016c36.732,-36.752 62.22,-56.254 99.701,-56.254c47.977,0 68.968,29.252 68.968,97.506l0,222.764l61.342,0l0,-231.014c0,-92.999 -34.412,-142.415 -110.819,-142.415c-50.225,0 -87.707,26.954 -122.184,61.41l-2.244,0l-5.237,-52.41l-50.869,0l0,364.429Z" style="fill:#fff;fill-rule:nonzero;"/><path d="M5495.64,4818.24c73.404,0 110.854,-54.66 136.321,-126.664l137.067,-394.525l-59.919,0l-65.164,201.763c-9.737,32.252 -20.223,69.754 -30.71,102.756l-2.996,0c-11.235,-33.752 -23.968,-71.254 -35.203,-102.756l-74.153,-201.763l-63.666,0l146.058,365.273l-8.239,27.002c-14.981,45.003 -41.196,78.005 -82.392,78.005c-8.988,0 -20.223,-3.001 -27.713,-5.251l-11.985,48.673c11.985,4.492 26.216,7.487 42.694,7.487Z" style="fill:#fff;fill-rule:nonzero;"/></g></g></g></svg>